<!-- Generated by IcoMoon.io -->
<svg version="1.1" xmlns="http://www.w3.org/2000/svg" width="30" height="32" viewBox="0 0 30 32">
<title>kaaiioos-logo</title>
<path d="M19.621 0c-1.228 0.002-3.226 0.040-5.224 0.080h-0.023c-2.241 0.128-4.485 0.257-6.495 0.407s-3.835 0.291-5.189 1.103c-1.354 0.812-2.015 2.282-2.321 4.579s-0.321 5.526-0.344 8.527c-0.023 3.001-0.050 5.777 0.029 7.506s0.329 2.56 1.484 4.415c0.578 0.927 1.39 2.152 2.157 3.185 0.383 0.517 0.754 0.984 1.087 1.349s0.531 0.649 1.015 0.784c0.007 0.003 0.018 0.001 0.025 0.004 0.304 0.102 0.666 0.074 0.944-0.070 0.688-0.356 1.106-1.040 1.697-1.691s1.26-1.245 1.971-1.441c0.711-0.196 1.678-0.049 2.853 0.268s2.536 0.785 4.047 1.087c3.024 0.605 6.469 0.53 8.758-0.051 1.144-0.29 2.024-0.722 2.661-1.375s0.995-1.5 1.179-2.497c0.369-1.995 0.127-4.69-0.070-7.696s-0.366-6.341-0.469-8.513c-0.103-2.172-0.086-3.17-0.438-3.94-0.048-0.105-0.106-0.2-0.17-0.287-0.101-0.17-0.221-0.333-0.366-0.501-0.363-0.419-0.856-0.866-1.412-1.324-1.112-0.915-2.477-1.865-3.467-2.509s-1.623-0.998-2.211-1.193c-0.589-0.196-1.094-0.206-1.709-0.205zM23.61 5.606c1.244 0.008 2.405 0.038 3.566 0.068 0.344 0.056 0.688 0.111 0.892 0.637s0.267 1.523 0.377 3.65c0.11 2.127 0.267 5.385 0.458 8.327s0.415 5.568 0.078 7.377c-0.336 1.808-1.234 2.797-3.334 3.332s-5.402 0.618-8.302 0.045c-2.9-0.573-5.398-1.799-7.215-1.316s-2.953 2.678-3.719 3.105c-0.766 0.426-1.163-0.916-1.3-3.365s-0.017-6.003 0-9.636c0.017-3.633-0.068-7.344 0.61-9.262s2.119-2.044 4.661-2.258c2.542-0.214 6.184-0.516 9.166-0.637 1.491-0.061 2.817-0.076 4.061-0.068zM17.418 10.453c-0.068-0.006-0.17 0.030-0.26 0.092-0.125 0.086-0.24 0.156-0.344 0.211-0.129 0.068-0.356 0.145-0.501 0.168-0.112 0.018-0.238 0.030-0.381 0.037-0.146 0.007-0.384 0.007-0.53-0.008-0.076-0.008-0.153-0.019-0.233-0.033-0.144-0.026-0.378-0.067-0.52-0.1-0.025-0.006-0.052-0.011-0.078-0.018-0.142-0.036-0.367-0.111-0.508-0.149-0.317-0.085-0.638-0.136-0.964-0.154-0.146-0.008-0.384-0.009-0.53 0.004-0.201 0.018-0.395 0.059-0.585 0.119-0.139 0.044-0.358 0.137-0.487 0.205-0.166 0.088-0.324 0.194-0.471 0.317-0.112 0.094-0.281 0.26-0.377 0.37-0.139 0.158-0.268 0.334-0.385 0.528-0.076 0.125-0.183 0.337-0.241 0.471-0.1 0.235-0.182 0.484-0.246 0.747-0.035 0.142 0.057 0.285 0.199 0.319 0.103 0.024 0.224-0.070 0.284-0.203 0.324-0.733 0.872-1.137 1.642-1.21 0.146-0.014 0.382-0.012 0.528-0.004 0.068 0.004 0.136 0.009 0.201 0.016 0.145 0.015 0.379 0.055 0.524 0.076 0.029 0.004 0.057 0.008 0.084 0.012 0.145 0.021 0.38 0.046 0.526 0.051 0.050 0.002 0.211 0.002 0.356-0.018 0.472-0.063 1.128-0.284 1.971-0.659 0.134-0.059 0.155-0.029 0.049 0.072-0.308 0.293-0.579 0.564-0.813 0.811-0.101 0.106-0.26 0.283-0.354 0.395-0.148 0.177-0.275 0.343-0.381 0.497-0.083 0.121-0.203 0.324-0.266 0.456-0.192 0.403-0.302 0.869-0.328 1.4-0.007 0.146-0.008 0.364-0.008 0.487l0.016 0.194c-0.563-0.343-0.866-0.47-1.132-0.522-0.143-0.028-0.381-0.029-0.526-0.010-0.595 0.081-1.050 0.445-1.365 1.091-0.064 0.132 0.007 0.272 0.149 0.309 0.047 0.012 0.174-0.059 0.295-0.141 0.149-0.1 0.298-0.168 0.448-0.205 0.142-0.035 0.381-0.036 0.526-0.016 0.357 0.049 0.674 0.204 0.948 0.459 0.107 0.1 0.261 0.28 0.342 0.401 0.226 0.335 0.357 0.731 0.393 1.187 0.011 0.146 0.010 0.384 0.010 0.53 0 0.116-0.090 0.132-0.207 0.045-0.29-0.214-0.569-0.349-0.835-0.403-0.143-0.029-0.381-0.028-0.526-0.008-0.554 0.078-0.959 0.409-1.214 0.995-0.059 0.134 0.014 0.294 0.149 0.352 0.038 0.016 0.151-0.058 0.272-0.141 0.086-0.059 0.172-0.102 0.262-0.131 0.139-0.044 0.383-0.045 0.522-0.002 0.088 0.027 0.268 0.11 0.383 0.199 0.076 0.059 0.209 0.205 0.284 0.33 0.050 0.084 0.133 0.269 0.156 0.413 0.016 0.097 0.015 0.297-0.014 0.44-0.171 0.847-1.139 1.941-2.905 3.285-0.116 0.089-0.14 0.253-0.051 0.37l0.020 0.025c0.089 0.116 0.267 0.159 0.401 0.1 1.212-0.537 2.379-0.825 3.5-0.864 0.146-0.005 0.384-0.005 0.53 0 1.157 0.038 2.313 0.325 3.471 0.86 0.133 0.061 0.319 0.025 0.416-0.084l1.975-2.202c0.036-0.044 0.090-0.071 0.151-0.071 0.066 0 0.124 0.033 0.159 0.083l0 0.001c0.355 0.608 0.57 0.945 0.778 1.24 0.084 0.119 0.254 0.282 0.381 0.354 1.509 0.845 2.158-0.652 2.749-1.576 0.079-0.123 0.032-0.202-0.111-0.174-0.398 0.078-1.119 0.211-1.504-0.006-0.125-0.070-0.244-0.283-0.317-0.411-0.246-0.432-0.485-0.822-0.716-1.167-0.081-0.122-0.216-0.316-0.299-0.436-0.187-0.271-0.362-0.515-0.53-0.731-0.090-0.116-0.242-0.299-0.338-0.409-0.415-0.471-0.863-0.876-1.343-1.21-0.12-0.084-0.121-0.213 0-0.295l3.285-2.252c0.065-0.045 0.107-0.119 0.107-0.203 0-0.058-0.020-0.112-0.054-0.154l-1.818-2.272c-0.049-0.061-0.124-0.099-0.207-0.099-0.063 0-0.121 0.022-0.167 0.059l0-0-3.205 2.548c-0.114 0.091-0.199 0.046-0.186-0.1 0.069-0.772 0.196-1.466 0.385-2.080 0.043-0.14 0.12-0.364 0.172-0.501 0.227-0.597 0.539-1.198 0.935-1.801 0.080-0.122 0.058-0.295-0.055-0.389-0.084-0.070-0.229-0.037-0.317 0.080-0.195 0.258-0.372 0.532-0.53 0.819-0.070 0.128-0.177 0.34-0.239 0.473-0.143 0.311-0.268 0.646-0.375 1.005-0.042 0.14-0.102 0.37-0.135 0.512-0.090 0.397-0.163 0.821-0.219 1.273-0.018 0.145-0.042 0.382-0.055 0.528-0.045 0.508-0.072 1.059-0.078 1.652-0.001 0.146 0 0.384 0 0.53 0 0.118 0.002 0.232 0.004 0.346l-0-0.021 0.006 0.391c0.003 0.151 0.004 0.329 0.004 0.507 0 0.008 0 0.016 0 0.024v-0.001c0 0.034 0 0.18-0.004 0.327-0.024 0.816-0.163 1.458-0.418 1.928-0.070 0.128-0.209 0.321-0.307 0.43-0.385 0.428-1.006 0.86-1.865 1.294-0.131 0.066-0.345 0.168-0.477 0.231l-1.554 0.737c-0.004 0.001-0.008 0.002-0.012 0.002-0.019 0-0.034-0.015-0.034-0.034 0-0.010 0.004-0.019 0.011-0.025l0-0 1.715-1.441c0.112-0.094 0.293-0.246 0.403-0.342 0.543-0.476 0.931-0.878 1.159-1.204 0.084-0.12 0.198-0.328 0.248-0.465 0.126-0.34 0.197-0.794 0.213-1.363 0.004-0.146 0.004-0.384 0.004-0.53v-0.213c0-0.146-0.005-0.382-0.012-0.528-0.001-0.022-0.003-0.044-0.004-0.065-0.007-0.146-0.014-0.384-0.014-0.53 0-0.034-0.002-0.18 0-0.327 0.005-0.441 0.022-0.859 0.051-1.251 0.011-0.146 0.036-0.381 0.055-0.526 0.044-0.344 0.098-0.671 0.162-0.978 0.030-0.143 0.085-0.373 0.123-0.514 0.081-0.299 0.181-0.606 0.299-0.921 0.051-0.137 0.137-0.358 0.194-0.493 0.164-0.395 0.356-0.8 0.573-1.218 0.031-0.059 0.014-0.143-0.037-0.186-0.014-0.012-0.032-0.019-0.055-0.021zM19.852 14.428c0.072 0.008 0.135 0.044 0.178 0.097l0 0.001 1.152 1.427c0.034 0.042 0.054 0.095 0.054 0.154 0 0.084-0.042 0.158-0.106 0.202l-0.001 0.001-3.433 2.34c-0.022 0.015-0.049 0.024-0.079 0.024-0.077 0-0.14-0.063-0.14-0.14v0-2.051c0-0 0-0 0-0 0-0.174 0.081-0.328 0.206-0.429l0.001-0.001 1.973-1.568c0.045-0.036 0.103-0.058 0.166-0.058 0.010 0 0.020 0.001 0.030 0.002l-0.001-0zM17.631 19.31c0.031-0.004 0.065-0.002 0.1 0.010 0.143 0.048 0.28 0.102 0.413 0.162s0.345 0.172 0.469 0.248c0.127 0.078 0.251 0.165 0.37 0.26 0.114 0.091 0.291 0.249 0.397 0.35 0.129 0.123 0.254 0.257 0.377 0.403 0.094 0.112 0.241 0.3 0.327 0.418 0.138 0.19 0.276 0.396 0.415 0.616 0.078 0.124 0.059 0.312-0.039 0.42l-0.847 0.929c-0.098 0.108-0.283 0.142-0.415 0.078-0.138-0.066-0.273-0.128-0.407-0.184-0.135-0.057-0.356-0.143-0.495-0.19-0.099-0.033-0.197-0.063-0.293-0.088-0.142-0.037-0.374-0.086-0.518-0.111-0.414-0.073-0.928-0.114-1.539-0.123-0.146-0.002-0.167-0.070-0.051-0.158 0.425-0.323 0.752-0.651 0.982-0.983 0.083-0.12 0.199-0.328 0.258-0.461 0.168-0.382 0.277-0.848 0.325-1.398 0.009-0.109 0.079-0.185 0.172-0.197z"></path>
</svg>
